<svg width="240" height="240" viewBox="0 0 240 240" fill="none" xmlns="http://www.w3.org/2000/svg">
<rect width="240" height="240" fill="#343434"/>
<rect width="1920" height="1080" transform="translate(-788 -420)" fill="#455946"/>
<path d="M86.9991 68.1697C86.9991 66.2999 86.9991 65.365 86.6137 64.8752C86.2784 64.4491 85.7688 64.1968 85.2266 64.1885C84.6034 64.179 83.8599 64.7458 82.373 65.8794L49.1519 91.2069C47.0723 92.7923 46.0325 93.5851 45.2829 94.5843C44.619 95.4694 44.1239 96.4693 43.8226 97.5339C43.4824 98.7358 43.4824 100.043 43.4824 102.658V170.586C43.4824 172.751 43.4824 173.834 43.9116 174.338C44.284 174.776 44.843 175.009 45.4161 174.967C46.0765 174.917 46.8465 174.157 48.3866 172.635L82.7201 138.711C84.2989 137.151 85.0883 136.371 85.653 135.458C86.1537 134.649 86.5228 133.765 86.7466 132.84C86.9991 131.797 86.9991 130.687 86.9991 128.468V68.1697Z" fill="#E6DB3D"/>
<path d="M63.1175 191.454C61.5826 192.995 60.8151 193.766 60.764 194.427C60.7197 195.001 60.9526 195.562 61.3905 195.935C61.8953 196.366 62.9829 196.366 65.1583 196.366H132.239C134.605 196.366 135.787 196.366 136.891 196.082C137.868 195.831 138.797 195.417 139.637 194.857C140.585 194.226 141.375 193.346 142.955 191.585L174.627 156.304C175.993 154.782 176.676 154.021 176.703 153.373C176.726 152.811 176.485 152.271 176.051 151.913C175.552 151.5 174.529 151.5 172.483 151.5H108.886C106.678 151.5 105.574 151.5 104.536 151.75C103.615 151.972 102.735 152.337 101.928 152.833C101.018 153.393 100.239 154.175 98.6817 155.739L63.1175 191.454Z" fill="#E6DB3D"/>
<path d="M174.139 127.5C175.819 127.5 176.659 127.5 177.301 127.173C177.865 126.885 178.324 126.426 178.612 125.862C178.939 125.22 178.939 124.38 178.939 122.7V64.1525C178.939 62.4724 178.939 61.6323 178.612 60.9906C178.324 60.4261 177.865 59.9671 177.301 59.6795C176.659 59.3525 175.819 59.3525 174.139 59.3525H115.563C113.883 59.3525 113.043 59.3525 112.401 59.6795C111.836 59.9671 111.377 60.4261 111.09 60.9906C110.763 61.6323 110.763 62.4724 110.763 64.1525V122.7C110.763 124.38 110.763 125.22 111.09 125.862C111.377 126.426 111.836 126.885 112.401 127.173C113.043 127.5 113.883 127.5 115.563 127.5H174.139Z" fill="#E6DB3D"/>
<path fill-rule="evenodd" clip-rule="evenodd" d="M77.6633 38.9999C75.218 38.9999 73.9954 38.9999 73.3453 38.494C72.7794 38.0537 72.4401 37.3834 72.4201 36.6667C72.3972 35.8433 73.1209 34.8578 74.5682 32.887L95.625 4.21437C96.6723 2.78823 97.196 2.07517 97.8411 1.82127C98.4059 1.59896 99.0341 1.59896 99.5989 1.82127C100.244 2.07517 100.768 2.78823 101.815 4.21437L122.872 32.8869C124.319 34.8578 125.043 35.8433 125.02 36.6667C125 37.3834 124.661 38.0537 124.095 38.494C123.445 38.9999 122.222 38.9999 119.777 38.9999H108.56C107.216 38.9999 106.544 38.9999 106.03 39.2615C105.579 39.4916 105.212 39.8587 104.982 40.3103C104.72 40.8237 104.72 41.4958 104.72 42.8399V123.9C104.72 127.26 104.72 128.94 105.374 130.224C105.949 131.353 106.867 132.271 107.996 132.846C109.28 133.5 110.96 133.5 114.32 133.5H194.159C195.503 133.5 196.175 133.5 196.689 133.238C197.14 133.008 197.507 132.641 197.737 132.189C197.999 131.676 197.999 131.004 197.999 129.66V118.125C197.999 115.769 197.999 114.591 198.489 113.946C198.917 113.385 199.569 113.041 200.274 113.004C201.082 112.961 202.056 113.625 204.002 114.953L235.347 136.327C236.907 137.391 237.687 137.923 237.96 138.59C238.199 139.173 238.199 139.827 237.96 140.41C237.687 141.077 236.907 141.609 235.347 142.672L204.002 164.047C202.056 165.375 201.082 166.038 200.274 165.996C199.569 165.959 198.917 165.614 198.489 165.053C197.999 164.409 197.999 163.231 197.999 160.874V149.34C197.999 147.996 197.999 147.324 197.737 146.81C197.507 146.359 197.14 145.992 196.689 145.761C196.175 145.5 195.503 145.5 194.159 145.5H109.073C106.161 145.5 104.705 145.5 103.333 145.827C102.117 146.116 100.954 146.594 99.8855 147.243C98.6805 147.975 97.6451 148.999 95.5742 151.046L43.6208 202.407C42.6673 203.349 42.1906 203.82 42.0093 204.366C41.8498 204.846 41.8461 205.365 41.9987 205.847C42.1722 206.395 42.6421 206.873 43.582 207.829L50.2424 214.605C51.8072 216.197 52.5896 216.993 52.7011 217.774C52.7983 218.454 52.5988 219.144 52.1532 219.668C51.6422 220.269 50.5557 220.524 48.3827 221.035L12.1486 229.554C10.1167 230.032 9.10081 230.271 8.39438 229.985C7.77768 229.736 7.292 229.242 7.0532 228.622C6.77966 227.911 7.03535 226.899 7.54674 224.875L16.6608 188.81C17.208 186.645 17.4816 185.562 18.091 185.061C18.6223 184.624 19.3155 184.436 19.9947 184.545C20.7737 184.67 21.5565 185.466 23.1222 187.059L29.7643 193.816C30.7089 194.777 31.1813 195.258 31.7289 195.44C32.2106 195.601 32.7308 195.605 33.2147 195.451C33.7649 195.276 34.2441 194.802 35.2024 193.855L87.0184 142.63C89.1221 140.55 90.174 139.51 90.9264 138.293C91.5935 137.215 92.0854 136.037 92.3836 134.804C92.72 133.413 92.72 131.934 92.72 128.976V42.8399C92.72 41.4958 92.72 40.8237 92.4584 40.3103C92.2283 39.8587 91.8612 39.4916 91.4096 39.2615C90.8962 38.9999 90.2241 38.9999 88.88 38.9999H77.6633Z" fill="white"/>
</svg>
