<svg width="133" height="132" viewBox="0 0 133 132" fill="none" xmlns="http://www.w3.org/2000/svg">
<path d="M48.3824 37.4933C48.3824 36.4649 48.3824 35.9507 48.1704 35.6813C47.986 35.4469 47.7057 35.3081 47.4075 35.3036C47.0648 35.2983 46.6559 35.6101 45.838 36.2336L27.5664 50.1637C26.4227 51.0357 25.8508 51.4717 25.4385 52.0213C25.0733 52.5081 24.8011 53.058 24.6353 53.6435C24.4482 54.3046 24.4482 55.0237 24.4482 56.462V93.8223C24.4482 95.0131 24.4482 95.6085 24.6843 95.8859C24.8891 96.1266 25.1966 96.255 25.5118 96.2315C25.875 96.2045 26.2985 95.786 27.1456 94.9491L46.029 76.2908C46.8973 75.4329 47.3315 75.0039 47.6421 74.5018C47.9174 74.0566 48.1204 73.5707 48.2435 73.0619C48.3824 72.4881 48.3824 71.8778 48.3824 70.6571V37.4933Z" fill="#E6DB3D"/>
<path d="M35.2475 105.299C34.4033 106.147 33.9812 106.571 33.9531 106.935C33.9287 107.251 34.0568 107.559 34.2977 107.764C34.5753 108.001 35.1735 108.001 36.3699 108.001H73.2645C74.5655 108.001 75.216 108.001 75.8227 107.845C76.3604 107.707 76.8711 107.479 77.3332 107.171C77.8546 106.824 78.2892 106.34 79.1582 105.372L96.5775 85.967C97.3291 85.1298 97.7049 84.7112 97.7194 84.3553C97.7321 84.0462 97.5994 83.7489 97.361 83.5518C97.0864 83.3249 96.5239 83.3249 95.3988 83.3249H60.4199C59.2057 83.3249 58.5986 83.3249 58.0275 83.4624C57.5211 83.5843 57.0371 83.7854 56.5935 84.0582C56.093 84.3658 55.6646 84.796 54.8079 85.6564L35.2475 105.299Z" fill="#E6DB3D"/>
<path d="M96.3093 70.1249C97.2334 70.1249 97.6955 70.1249 98.0484 69.9451C98.3589 69.7869 98.6113 69.5345 98.7695 69.224C98.9493 68.871 98.9493 68.409 98.9493 67.4849V35.2838C98.9493 34.3597 98.9493 33.8977 98.7695 33.5447C98.6113 33.2342 98.3589 32.9818 98.0484 32.8236C97.6955 32.6438 97.2334 32.6438 96.3093 32.6438H64.0925C63.1684 32.6438 62.7063 32.6438 62.3534 32.8236C62.0429 32.9818 61.7905 33.2342 61.6323 33.5447C61.4525 33.8977 61.4525 34.3597 61.4525 35.2838V67.4849C61.4525 68.409 61.4525 68.871 61.6323 69.224C61.7905 69.5345 62.0429 69.7869 62.3534 69.9451C62.7063 70.1249 63.1684 70.1249 64.0925 70.1249H96.3093Z" fill="#E6DB3D"/>
<path fill-rule="evenodd" clip-rule="evenodd" d="M43.2483 21.4501C41.9034 21.4501 41.231 21.4501 40.8734 21.1719C40.5622 20.9297 40.3756 20.561 40.3646 20.1668C40.352 19.714 40.75 19.172 41.5461 18.088L53.1272 2.31806C53.7033 1.53369 53.9913 1.1415 54.3461 1.00186C54.6568 0.879588 55.0023 0.879588 55.3129 1.00186C55.6677 1.1415 55.9558 1.53369 56.5318 2.31806L68.113 18.088C68.909 19.172 69.3071 19.714 69.2945 20.1668C69.2835 20.561 69.0968 20.9297 68.7856 21.1719C68.428 21.4501 67.7556 21.4501 66.4107 21.4501H60.2415C59.5023 21.4501 59.1326 21.4501 58.8503 21.594C58.6019 21.7205 58.3999 21.9225 58.2734 22.1708C58.1295 22.4532 58.1295 22.8228 58.1295 23.5621V68.1451C58.1295 69.9933 58.1295 70.9174 58.4892 71.6233C58.8056 72.2442 59.3104 72.749 59.9314 73.0654C60.6373 73.4251 61.5613 73.4251 63.4095 73.4251H107.321C108.06 73.4251 108.43 73.4251 108.712 73.2812C108.961 73.1547 109.163 72.9527 109.289 72.7044C109.433 72.422 109.433 72.0524 109.433 71.3131V64.9691C109.433 63.6731 109.433 63.0251 109.703 62.6707C109.938 62.3621 110.297 62.1725 110.684 62.1522C111.129 62.1289 111.664 62.494 112.735 63.2242L129.974 74.9802C130.832 75.5653 131.261 75.8578 131.411 76.2246C131.543 76.5453 131.543 76.9049 131.411 77.2256C131.261 77.5924 130.832 77.8849 129.974 78.47L112.735 90.226C111.664 90.9562 111.129 91.3213 110.684 91.298C110.297 91.2777 109.938 91.0881 109.703 90.7795C109.433 90.4252 109.433 89.7771 109.433 88.4811V82.1371C109.433 81.3978 109.433 81.0282 109.289 80.7458C109.163 80.4975 108.961 80.2955 108.712 80.169C108.43 80.0251 108.06 80.0251 107.321 80.0251H60.5234C58.9218 80.0251 58.121 80.0251 57.3667 80.2048C56.698 80.3642 56.0582 80.627 55.4706 80.9839C54.8078 81.3864 54.2383 81.9494 53.0993 83.0753L24.5249 111.324C24.0006 111.842 23.7384 112.101 23.6386 112.402C23.5509 112.666 23.5489 112.951 23.6328 113.216C23.7282 113.518 23.9867 113.78 24.5036 114.306L28.1668 118.033C29.0275 118.908 29.4578 119.346 29.5191 119.776C29.5726 120.15 29.4629 120.529 29.2178 120.818C28.9367 121.148 28.3392 121.288 27.144 121.569L7.21523 126.255C6.09772 126.518 5.53897 126.649 5.15043 126.492C4.81125 126.355 4.54412 126.083 4.41278 125.742C4.26233 125.351 4.40296 124.794 4.68423 123.681L9.69695 103.846C9.99792 102.655 10.1484 102.059 10.4836 101.784C10.7758 101.543 11.1571 101.44 11.5306 101.5C11.959 101.569 12.3896 102.007 13.2507 102.883L16.9039 106.599C17.4234 107.128 17.6832 107.392 17.9844 107.492C18.2493 107.581 18.5355 107.583 18.8016 107.498C19.1042 107.402 19.3678 107.141 19.8948 106.62L48.3936 78.4467C49.5507 77.3028 50.1292 76.7309 50.5431 76.0616C50.91 75.4682 51.1805 74.8204 51.3445 74.1423C51.5295 73.3774 51.5295 72.5639 51.5295 70.9369V23.5621C51.5295 22.8228 51.5295 22.4532 51.3857 22.1708C51.2591 21.9225 51.0572 21.7205 50.8088 21.594C50.5264 21.4501 50.1568 21.4501 49.4175 21.4501H43.2483Z" fill="#101509"/>
</svg>
