<svg width="628" height="132" viewBox="0 0 628 132" fill="none" xmlns="http://www.w3.org/2000/svg">
<path d="M153.084 111.566V37.5686H177.715C182.225 37.5686 186.242 38.5552 189.766 40.5285C193.36 42.5017 196.144 45.2854 198.117 48.8796C200.161 52.4032 201.183 56.4555 201.183 61.0363C201.183 65.617 200.161 69.7045 198.117 73.2987C196.144 76.8223 193.36 79.5708 189.766 81.5441C186.242 83.5173 182.225 84.5039 177.715 84.5039H164.924V111.566H153.084ZM177.081 73.2987C180.745 73.2987 183.67 72.1711 185.855 69.9159C188.039 67.6608 189.132 64.7009 189.132 61.0363C189.132 57.3716 188.039 54.4117 185.855 52.1566C183.67 49.9014 180.745 48.7739 177.081 48.7739H164.924V73.2987H177.081Z" fill="#101509"/>
<path d="M241.984 112.2C235.148 112.2 228.946 110.544 223.379 107.232C217.811 103.849 213.407 99.2682 210.165 93.4893C206.993 87.7105 205.408 81.4031 205.408 74.5672C205.408 67.7312 206.993 61.4239 210.165 55.645C213.407 49.8662 217.811 45.3207 223.379 42.0084C228.946 38.6257 235.148 36.9343 241.984 36.9343C247.762 36.9343 253.013 38.1324 257.734 40.5285C262.527 42.9246 266.649 46.2368 270.102 50.4652L261.857 58.7106C256.994 51.6633 250.37 48.1396 241.984 48.1396C237.262 48.1396 233.033 49.3024 229.298 51.628C225.563 53.9537 222.639 57.1602 220.524 61.2477C218.481 65.2647 217.459 69.7045 217.459 74.5672C217.459 79.4299 218.481 83.9049 220.524 87.9924C222.639 92.0094 225.563 95.1807 229.298 97.5063C233.033 99.8319 237.262 100.995 241.984 100.995C248.326 100.995 253.612 99.092 257.84 95.2864C262.139 91.4808 264.852 86.3363 265.98 79.8527H241.561V68.6474H276.974V111.566H265.98V101.523C263.161 105.047 259.637 107.725 255.409 109.557C251.251 111.319 246.776 112.2 241.984 112.2Z" fill="#101509"/>
<path d="M311.919 111.566H300.502L281.052 58.7106H293.526L306.211 95.075L318.896 58.7106H331.37L311.919 111.566Z" fill="#101509"/>
<path d="M358.562 112.2C353.559 112.2 348.978 111.002 344.82 108.606C340.662 106.139 337.385 102.862 334.989 98.7748C332.593 94.6169 331.395 90.0714 331.395 85.1382C331.395 80.2051 332.593 75.6947 334.989 71.6073C337.385 67.4493 340.627 64.1723 344.714 61.7762C348.802 59.3097 353.312 58.0764 358.245 58.0764C363.178 58.0764 367.689 59.3097 371.776 61.7762C375.863 64.1723 379.105 67.4493 381.501 71.6073C383.897 75.6947 385.095 80.2051 385.095 85.1382C385.095 86.5477 384.99 87.8867 384.778 89.1552H343.657C344.291 92.5379 345.983 95.3921 348.731 97.7177C351.55 100.043 354.827 101.206 358.562 101.206C361.311 101.206 363.707 100.783 365.75 99.9377C367.794 99.092 369.38 97.8234 370.507 96.1321H384.355C382.523 100.924 379.246 104.8 374.524 107.76C369.873 110.72 364.552 112.2 358.562 112.2ZM372.41 79.2184C371.635 76.1176 369.944 73.6158 367.336 71.713C364.729 69.8102 361.698 68.8588 358.245 68.8588C354.792 68.8588 351.761 69.8102 349.154 71.713C346.546 73.6158 344.855 76.1176 344.08 79.2184H372.41Z" fill="#101509"/>
<path d="M417.431 112.2C412.287 112.2 407.671 111.037 403.583 108.712C399.496 106.316 396.254 103.074 393.858 98.9863C391.532 94.8988 390.369 90.2828 390.369 85.1382C390.369 79.9936 391.532 75.3776 393.858 71.2902C396.254 67.2027 399.496 63.9961 403.583 61.6705C407.671 59.2744 412.287 58.0764 417.431 58.0764C425.113 58.0764 431.561 60.7544 436.776 66.1103L428.214 73.8272C425.254 70.6559 421.66 69.0702 417.431 69.0702C412.921 69.0702 409.256 70.5502 406.437 73.5101C403.618 76.47 402.209 80.346 402.209 85.1382C402.209 89.9304 403.618 93.8064 406.437 96.7663C409.256 99.7262 412.921 101.206 417.431 101.206C421.942 101.206 425.606 99.7262 428.425 96.7663C431.315 93.736 432.759 89.8599 432.759 85.1382H444.387C444.387 90.2123 443.189 94.8283 440.793 98.9863C438.468 103.074 435.261 106.316 431.174 108.712C427.086 111.037 422.505 112.2 417.431 112.2Z" fill="#101509"/>
<path d="M466.664 111.566H455.036V69.7045H444.359V58.7106H455.036V37.5686L466.664 36.3V58.7106H482.521V69.7045H466.664V111.566Z" fill="#101509"/>
<path d="M508.953 112.2C503.809 112.2 499.157 111.037 495 108.712C490.912 106.316 487.706 103.074 485.38 98.9863C483.054 94.8283 481.891 90.2123 481.891 85.1382C481.891 80.0641 483.054 75.4833 485.38 71.3959C487.706 67.2379 490.912 63.9961 495 61.6705C499.157 59.2744 503.809 58.0764 508.953 58.0764C514.098 58.0764 518.714 59.2744 522.801 61.6705C526.959 63.9961 530.201 67.2379 532.527 71.3959C534.852 75.4833 536.015 80.0641 536.015 85.1382C536.015 90.2123 534.852 94.8283 532.527 98.9863C530.201 103.074 526.959 106.316 522.801 108.712C518.714 111.037 514.098 112.2 508.953 112.2ZM508.953 100.995C513.464 100.995 517.128 99.5148 519.947 96.5549C522.766 93.595 524.176 89.7895 524.176 85.1382C524.176 80.487 522.766 76.6814 519.947 73.7215C517.128 70.7616 513.464 69.2817 508.953 69.2817C504.443 69.2817 500.778 70.7616 497.959 73.7215C495.14 76.6814 493.731 80.487 493.731 85.1382C493.731 89.7895 495.14 93.595 497.959 96.5549C500.778 99.5148 504.443 100.995 508.953 100.995Z" fill="#101509"/>
<path d="M545.081 112.2C542.896 112.2 541.028 111.425 539.478 109.874C537.998 108.324 537.258 106.456 537.258 104.272C537.258 102.087 537.998 100.22 539.478 98.6691C541.028 97.1187 542.896 96.3435 545.081 96.3435C547.265 96.3435 549.098 97.1187 550.578 98.6691C552.128 100.22 552.903 102.087 552.903 104.272C552.903 106.456 552.128 108.324 550.578 109.874C549.098 111.425 547.265 112.2 545.081 112.2Z" fill="#101509"/>
<path d="M560.559 111.566V58.7106H572.187V65.6875C573.174 63.4324 574.724 61.6 576.838 60.1906C578.952 58.7811 581.525 58.0764 584.555 58.0764C586.528 58.0764 588.079 58.2878 589.206 58.7106V70.973C587.938 70.4092 586.317 70.1273 584.344 70.1273C580.75 70.1273 577.825 71.2902 575.57 73.6158C573.315 75.9414 572.187 79.148 572.187 83.2354V111.566H560.559Z" fill="#101509"/>
<path d="M606.473 112.2C602.949 112.2 599.813 111.425 597.064 109.874C594.316 108.254 592.167 106.069 590.616 103.32C589.136 100.501 588.396 97.4358 588.396 94.1236H599.496C599.496 96.2378 600.201 97.9644 601.61 99.3034C603.02 100.572 604.64 101.206 606.473 101.206C608.516 101.206 610.137 100.642 611.335 99.5148C612.604 98.3168 613.238 96.6959 613.238 94.6521C613.238 92.397 612.569 90.8113 611.23 89.8952C609.891 88.979 607.812 88.1333 604.993 87.3581C604.64 87.2876 603.936 87.1115 602.879 86.8296C599.778 85.9839 597.17 84.3982 595.056 82.0726C592.942 79.747 591.885 76.6109 591.885 72.6644C591.885 69.9159 592.519 67.4494 593.787 65.2647C595.126 63.0095 596.888 61.2477 599.073 59.9792C601.328 58.7106 603.795 58.0764 606.473 58.0764C611.758 58.0764 615.951 60.3315 619.052 64.8418L611.864 71.9244C611.441 70.8673 610.807 70.0216 609.961 69.3874C609.186 68.7531 608.27 68.436 607.213 68.436C605.874 68.436 604.817 68.8236 604.041 69.5988C603.337 70.374 602.984 71.3254 602.984 72.453C602.984 74.0034 603.548 75.1662 604.676 75.9414C605.874 76.6461 607.776 77.3509 610.384 78.0556C611.652 78.3375 613.062 78.7603 614.612 79.3241C621.448 81.8612 624.866 86.9 624.866 94.4407C624.866 99.7262 623.14 104.025 619.686 107.337C616.233 110.579 611.829 112.2 606.473 112.2Z" fill="#101509"/>
<path d="M48.3824 37.4933C48.3824 36.4649 48.3824 35.9507 48.1704 35.6813C47.986 35.4469 47.7057 35.3081 47.4075 35.3036C47.0648 35.2983 46.6559 35.6101 45.838 36.2336L27.5664 50.1637C26.4227 51.0357 25.8508 51.4717 25.4385 52.0213C25.0733 52.5081 24.8011 53.058 24.6353 53.6435C24.4482 54.3046 24.4482 55.0237 24.4482 56.462V93.8223C24.4482 95.0131 24.4482 95.6085 24.6843 95.8859C24.8891 96.1266 25.1966 96.255 25.5118 96.2315C25.875 96.2045 26.2985 95.786 27.1456 94.9491L46.029 76.2908C46.8973 75.4329 47.3315 75.0039 47.6421 74.5018C47.9174 74.0566 48.1204 73.5707 48.2435 73.0619C48.3824 72.4881 48.3824 71.8778 48.3824 70.6571V37.4933Z" fill="#E6DB3D"/>
<path d="M35.2475 105.299C34.4033 106.147 33.9812 106.571 33.9531 106.935C33.9287 107.251 34.0568 107.559 34.2977 107.764C34.5753 108.001 35.1735 108.001 36.3699 108.001H73.2645C74.5655 108.001 75.216 108.001 75.8227 107.845C76.3604 107.707 76.8711 107.479 77.3332 107.171C77.8546 106.824 78.2892 106.34 79.1582 105.372L96.5775 85.967C97.3291 85.1298 97.7049 84.7112 97.7194 84.3553C97.7321 84.0462 97.5994 83.7489 97.361 83.5518C97.0864 83.3249 96.5239 83.3249 95.3988 83.3249H60.4199C59.2057 83.3249 58.5986 83.3249 58.0275 83.4624C57.5211 83.5843 57.0371 83.7854 56.5935 84.0582C56.093 84.3658 55.6646 84.796 54.8079 85.6564L35.2475 105.299Z" fill="#E6DB3D"/>
<path d="M96.3093 70.1249C97.2334 70.1249 97.6955 70.1249 98.0484 69.9451C98.3589 69.7869 98.6113 69.5345 98.7695 69.224C98.9493 68.871 98.9493 68.409 98.9493 67.4849V35.2838C98.9493 34.3597 98.9493 33.8977 98.7695 33.5447C98.6113 33.2342 98.3589 32.9818 98.0484 32.8236C97.6955 32.6438 97.2334 32.6438 96.3093 32.6438H64.0925C63.1684 32.6438 62.7063 32.6438 62.3534 32.8236C62.0429 32.9818 61.7905 33.2342 61.6323 33.5447C61.4525 33.8977 61.4525 34.3597 61.4525 35.2838V67.4849C61.4525 68.409 61.4525 68.871 61.6323 69.224C61.7905 69.5345 62.0429 69.7869 62.3534 69.9451C62.7063 70.1249 63.1684 70.1249 64.0925 70.1249H96.3093Z" fill="#E6DB3D"/>
<path fill-rule="evenodd" clip-rule="evenodd" d="M43.2483 21.4501C41.9034 21.4501 41.231 21.4501 40.8734 21.1719C40.5622 20.9297 40.3756 20.561 40.3646 20.1668C40.352 19.714 40.75 19.172 41.5461 18.088L53.1272 2.31806C53.7033 1.53369 53.9913 1.1415 54.3461 1.00186C54.6568 0.879588 55.0023 0.879588 55.3129 1.00186C55.6677 1.1415 55.9558 1.53369 56.5318 2.31806L68.113 18.088C68.909 19.172 69.3071 19.714 69.2945 20.1668C69.2835 20.561 69.0968 20.9297 68.7856 21.1719C68.428 21.4501 67.7556 21.4501 66.4107 21.4501H60.2415C59.5023 21.4501 59.1326 21.4501 58.8503 21.594C58.6019 21.7205 58.3999 21.9225 58.2734 22.1708C58.1295 22.4532 58.1295 22.8228 58.1295 23.5621V68.1451C58.1295 69.9933 58.1295 70.9174 58.4892 71.6233C58.8056 72.2442 59.3104 72.749 59.9314 73.0654C60.6373 73.4251 61.5613 73.4251 63.4095 73.4251H107.321C108.06 73.4251 108.43 73.4251 108.712 73.2812C108.961 73.1547 109.163 72.9527 109.289 72.7044C109.433 72.422 109.433 72.0524 109.433 71.3131V64.9691C109.433 63.6731 109.433 63.0251 109.703 62.6707C109.938 62.3621 110.297 62.1725 110.684 62.1522C111.129 62.1289 111.664 62.494 112.735 63.2242L129.974 74.9802C130.832 75.5653 131.261 75.8578 131.411 76.2246C131.543 76.5453 131.543 76.9049 131.411 77.2256C131.261 77.5924 130.832 77.8849 129.974 78.47L112.735 90.226C111.664 90.9562 111.129 91.3213 110.684 91.298C110.297 91.2777 109.938 91.0881 109.703 90.7795C109.433 90.4252 109.433 89.7771 109.433 88.4811V82.1371C109.433 81.3978 109.433 81.0282 109.289 80.7458C109.163 80.4975 108.961 80.2955 108.712 80.169C108.43 80.0251 108.06 80.0251 107.321 80.0251H60.5234C58.9218 80.0251 58.121 80.0251 57.3667 80.2048C56.698 80.3642 56.0582 80.627 55.4706 80.9839C54.8078 81.3864 54.2383 81.9494 53.0993 83.0753L24.5249 111.324C24.0006 111.842 23.7384 112.101 23.6386 112.402C23.5509 112.666 23.5489 112.951 23.6328 113.216C23.7282 113.518 23.9867 113.78 24.5036 114.306L28.1668 118.033C29.0275 118.908 29.4578 119.346 29.5191 119.776C29.5726 120.15 29.4629 120.529 29.2178 120.818C28.9367 121.148 28.3392 121.288 27.144 121.569L7.21523 126.255C6.09772 126.518 5.53897 126.649 5.15043 126.492C4.81125 126.355 4.54412 126.083 4.41278 125.742C4.26233 125.351 4.40296 124.794 4.68423 123.681L9.69695 103.846C9.99792 102.655 10.1484 102.059 10.4836 101.784C10.7758 101.543 11.1571 101.44 11.5306 101.5C11.959 101.569 12.3896 102.007 13.2507 102.883L16.9039 106.599C17.4234 107.128 17.6832 107.392 17.9844 107.492C18.2493 107.581 18.5355 107.583 18.8016 107.498C19.1042 107.402 19.3678 107.141 19.8948 106.62L48.3936 78.4467C49.5507 77.3028 50.1292 76.7309 50.5431 76.0616C50.91 75.4682 51.1805 74.8204 51.3445 74.1423C51.5295 73.3774 51.5295 72.5639 51.5295 70.9369V23.5621C51.5295 22.8228 51.5295 22.4532 51.3857 22.1708C51.2591 21.9225 51.0572 21.7205 50.8088 21.594C50.5264 21.4501 50.1568 21.4501 49.4175 21.4501H43.2483Z" fill="#101509"/>
</svg>
